<svg width="250" height="250" viewBox="0 0 250 250" fill="none" xmlns="http://www.w3.org/2000/svg">
<g clip-path="url(#clip0_3_59)">
<path d="M250 0H0V250H250V0Z" fill="#00005B"/>
<path fill-rule="evenodd" clip-rule="evenodd" d="M66.5166 149.268H104.408V148.757L112.761 173.287C112.964 174.002 113.677 174.513 114.39 174.411H135.679C136.698 174.411 137.003 173.9 136.698 172.776L99.5189 68.5259C99.4171 68.0149 98.9078 67.7083 98.1948 67.7083H71.8132C71.3039 67.8105 70.8965 68.3215 70.9984 68.8325C70.9984 71.081 70.7946 73.3296 70.3872 75.4759C69.9798 76.7022 69.6742 77.6223 69.3686 78.6442L36.57 172.98C36.2644 174.206 36.57 174.82 37.6904 174.82H56.8399C57.7567 174.922 58.5715 174.309 58.7753 173.389L66.5166 149.268ZM98.2966 128.929H72.4244C73.9523 124.637 75.582 119.833 76.9062 114.621C77.9152 111.457 78.8852 108.293 79.8402 105.178C80.4278 103.261 81.0098 101.363 81.5917 99.4942C83.0177 95.0993 84.1382 90.7045 85.0549 86.3097H85.2586C85.6561 87.677 86.0536 89.1079 86.4687 90.6023C86.7982 91.7887 87.1389 93.0152 87.4995 94.2817C88.3144 97.2457 89.2311 100.21 90.2497 103.378C90.759 104.962 91.2428 106.521 91.7266 108.079C92.2105 109.638 92.6943 111.197 93.2037 112.781C94.1204 115.847 95.0371 118.811 95.9538 121.571C96.8706 124.228 97.6855 126.783 98.2966 128.929Z" fill="#9999FF"/>
<path fill-rule="evenodd" clip-rule="evenodd" d="M164.404 140.069H196.693C198.058 140.069 199.369 140.178 200.639 140.283C201.834 140.382 202.993 140.478 204.129 140.478C206.472 140.478 208.407 140.376 210.037 140.172C210.609 140.136 211.118 140.1 211.565 140.068C212.39 140.01 213.001 139.967 213.398 139.967C214.111 139.967 214.722 139.354 214.824 138.639C214.87 138.229 214.915 137.718 214.969 137.106C215.037 136.343 215.119 135.423 215.232 134.346C215.333 132.404 215.435 130.258 215.435 127.805C215.435 123.614 214.824 119.424 213.5 115.336C212.176 111.043 210.037 107.159 207.388 103.684C204.536 100.107 200.869 97.3475 196.693 95.5078C191.702 93.2593 186.304 92.2372 180.905 92.3394C174.386 92.3394 168.682 93.1571 163.895 95.5078C159.107 97.8585 154.931 101.129 151.57 105.217C148.106 109.408 145.56 114.109 143.93 119.22C142.199 124.534 141.384 129.951 141.384 135.47C141.384 140.58 142.097 145.589 143.523 150.392C144.949 155.298 147.292 159.795 150.551 163.781C154.014 167.972 158.394 171.344 163.385 173.491C168.682 175.841 175.201 177.068 182.942 177.068C187.831 177.17 192.619 176.761 197.406 175.841C200.971 175.228 204.333 174.206 207.592 172.775C207.898 172.571 208.101 172.366 208.305 172.06C208.407 171.651 208.509 171.242 208.509 170.833V155.196C208.509 154.174 208.203 153.969 207.694 154.378C204.842 155.502 201.786 156.32 198.629 156.729C195.165 157.444 191.6 157.751 188.035 157.853C183.553 157.955 179.072 157.036 174.997 155.298C171.941 154.072 169.395 151.925 167.561 149.166C165.83 146.406 164.811 143.238 164.404 140.069ZM185.896 125.147H164.404C164.709 122.592 165.422 120.139 166.645 117.789C169.293 112.678 174.59 109.714 180.192 110.021C186.202 109.817 191.6 113.7 193.434 119.424C193.841 120.65 194.045 121.877 194.045 123.206V124.228C193.332 124.739 192.517 124.943 191.702 125.045C190.48 125.147 188.544 125.147 185.896 125.147Z" fill="#9999FF"/>
</g>
<rect x="0.5" y="0.5" width="249" height="249" rx="31.5" stroke="black" stroke-opacity="0.1"/>
<defs>
<clipPath id="clip0_3_59">
<rect width="250" height="250" rx="32" fill="white"/>
</clipPath>
</defs>
</svg>
