<svg width="250" height="250" viewBox="0 0 250 250" fill="none" xmlns="http://www.w3.org/2000/svg">
<g clip-path="url(#clip0_3_71)">
<path d="M250 0H0V250H250V0Z" fill="#171717"/>
<path d="M125.349 125C125.349 109.659 137.785 97.2227 153.127 97.2227C168.468 97.2227 180.905 109.659 180.905 125C180.905 140.342 168.468 152.778 153.127 152.778C137.785 152.778 125.349 140.342 125.349 125Z" fill="#1ABCFE"/>
<path d="M69.7917 180.555C69.7917 165.214 82.2282 152.777 97.5695 152.777H125.347V180.555C125.347 195.897 112.911 208.333 97.5695 208.333C82.2282 208.333 69.7917 195.897 69.7917 180.555Z" fill="#0ACF83"/>
<path d="M125.349 41.6666V97.2221H153.127C168.468 97.2221 180.905 84.7856 180.905 69.4444C180.905 54.1032 168.468 41.6666 153.127 41.6666H125.349Z" fill="#FF7262"/>
<path d="M69.7917 69.4444C69.7917 84.7857 82.2282 97.2221 97.5695 97.2221H125.347V41.6666H97.5695C82.2282 41.6666 69.7917 54.1032 69.7917 69.4444Z" fill="#F24E1E"/>
<path d="M69.7917 125C69.7917 140.342 82.2282 152.778 97.5695 152.778H125.347V97.2227H97.5695C82.2282 97.2227 69.7917 109.659 69.7917 125Z" fill="#A259FF"/>
</g>
<rect x="0.5" y="0.5" width="249" height="249" rx="31.5" stroke="black" stroke-opacity="0.1"/>
<defs>
<clipPath id="clip0_3_71">
<rect width="250" height="250" rx="32" fill="white"/>
</clipPath>
</defs>
</svg>
