<svg width="250" height="250" viewBox="0 0 250 250" fill="none" xmlns="http://www.w3.org/2000/svg">
<g clip-path="url(#clip0_3_80)">
<path d="M250 0H0V250H250V0Z" fill="white"/>
<path d="M64.9221 191.723L51.5625 41.6666H198.438L185.078 191.642L124.879 208.333" fill="#E44D26"/>
<path d="M124.999 195.573V53.9836H185.037L173.58 182.002" fill="#F16529"/>
<path d="M78.8485 72.3347H125V90.7272H99.0094L100.71 109.565H125V127.917H83.8685L78.8485 72.3347ZM84.6781 137.154H103.139L104.434 151.86L125 157.37V176.572L87.2691 166.039" fill="#EBEBEB"/>
<path d="M170.989 72.3347H124.918V90.7272H169.288L170.989 72.3347ZM167.628 109.565H124.918V127.958H147.589L145.443 151.86L124.918 157.37V176.491L162.568 166.039" fill="white"/>
</g>
<rect x="0.5" y="0.5" width="249" height="249" rx="31.5" stroke="black" stroke-opacity="0.1"/>
<defs>
<clipPath id="clip0_3_80">
<rect width="250" height="250" rx="32" fill="white"/>
</clipPath>
</defs>
</svg>
