<svg width="250" height="250" viewBox="0 0 250 250" fill="none" xmlns="http://www.w3.org/2000/svg">
<g clip-path="url(#clip0_3_63)">
<path d="M250 0H0V250H250V0Z" fill="#330000"/>
<path d="M168.214 85.2974C170.762 87.7249 174.16 89.0969 177.665 88.9914C181.275 89.2025 184.886 87.8304 187.329 85.2974C189.877 82.6588 191.152 79.1758 191.045 75.5874C191.152 72.1044 189.877 68.7271 187.541 66.194C185.205 63.7665 182.019 62.5 177.877 62.5C174.373 62.5 170.975 63.7665 168.426 66.194C165.877 68.6215 164.497 71.9989 164.603 75.5874C164.497 79.1758 165.771 82.6588 168.214 85.2974Z" fill="#FF9A00"/>
<path d="M165.771 99.3346V180.603C165.771 181.658 166.302 182.292 167.364 182.292H188.178C189.134 182.292 189.559 181.764 189.559 180.603V99.3346C189.559 98.3847 189.134 97.857 188.178 97.857H167.152C166.196 97.857 165.771 98.2792 165.771 99.3346Z" fill="#FF9A00"/>
<path fill-rule="evenodd" clip-rule="evenodd" d="M80.8167 155.483H120.321L129.029 180.602C129.241 181.341 129.985 181.869 130.728 181.763H152.923C153.985 181.763 154.303 181.235 153.985 180.075L115.224 71.3649C115.118 70.8372 114.693 70.5206 113.843 70.5206H86.3388C85.8078 70.6261 85.3831 71.1538 85.4893 71.6815C85.4893 74.0035 85.2769 76.3254 84.8521 78.5418C84.5511 79.4392 84.3035 80.2835 84.0714 81.0749C83.9759 81.4005 83.883 81.7171 83.7901 82.0248L49.5955 179.863C49.2769 181.13 49.5955 181.763 50.7636 181.763H70.7282C71.684 181.869 72.5335 181.235 72.7459 180.286L80.8167 155.483ZM113.949 134.058H86.976C88.5689 129.625 90.1618 124.664 91.6485 119.282C92.7005 116.014 93.7117 112.747 94.7074 109.53C95.32 107.551 95.9268 105.591 96.5335 103.661C98.0202 99.1228 99.1884 94.5844 100.144 90.0461H100.357C100.771 91.4581 101.185 92.9357 101.618 94.4789C101.962 95.704 102.317 96.9706 102.693 98.2784C103.542 101.339 104.498 104.4 105.56 107.672C106.091 109.308 106.595 110.917 107.1 112.527C107.604 114.136 108.109 115.746 108.64 117.382C109.595 120.548 110.551 123.609 111.507 126.459C112.463 129.203 113.312 131.841 113.949 134.058Z" fill="#FF9A00"/>
</g>
<rect x="0.5" y="0.5" width="249" height="249" rx="31.5" stroke="black" stroke-opacity="0.1"/>
<defs>
<clipPath id="clip0_3_63">
<rect width="250" height="250" rx="32" fill="white"/>
</clipPath>
</defs>
</svg>
