<svg width="250" height="250" viewBox="0 0 250 250" fill="none" xmlns="http://www.w3.org/2000/svg">
<g clip-path="url(#clip0_3_67)">
<rect width="250" height="250" rx="32" fill="#001E36"/>
<path d="M250 0H0V250H250V0Z" fill="#001E36"/>
<path fill-rule="evenodd" clip-rule="evenodd" d="M54.6875 69.5119V178.684C54.6875 179.639 55.1001 180.063 55.9253 180.063H75.9365C76.6585 179.957 77.1743 179.321 77.0711 178.578V144.521C79.031 144.521 80.4751 144.521 81.5066 144.627C82.5381 144.733 84.1885 144.733 86.6641 144.733C95.1224 144.733 102.859 143.779 109.873 141.126C116.578 138.58 122.354 134.124 126.48 128.183C130.606 122.241 132.669 114.708 132.669 105.584C132.669 100.81 131.844 96.2479 130.297 91.7919C128.646 87.2298 126.068 83.0921 122.767 79.697C118.847 75.7715 114.102 72.8008 108.945 70.9972C103.168 68.7692 96.1539 67.7083 87.6956 67.7083C84.6011 67.7083 81.5066 67.7083 78.3089 67.8143C76.7652 67.8656 75.2695 67.8921 73.8219 67.9177C72.271 67.9452 70.7753 67.9717 69.3348 68.0265C67.9841 68.078 66.6818 68.1045 65.4163 68.1302C64.0726 68.1576 62.7703 68.1841 61.4954 68.2387C59.123 68.3448 57.4726 68.3448 55.7191 68.3448C54.997 68.3448 54.6875 68.7692 54.6875 69.5119ZM77.1743 124.469V88.8212C77.8963 88.7151 79.3404 88.609 81.4034 88.7151C83.3633 88.609 85.7358 88.609 88.4177 88.609C92.6468 88.5029 96.7728 89.1395 100.589 90.7309C103.581 91.898 106.056 94.0199 107.81 96.7784C109.46 99.6429 110.286 102.932 110.182 106.221C110.182 110.889 109.151 114.496 106.985 117.149C104.715 119.801 101.827 121.817 98.5264 122.772C94.7098 124.045 90.687 124.681 86.6641 124.681H81.1971C80.0482 124.681 78.8103 124.59 77.4836 124.492C77.381 124.484 77.2779 124.477 77.1743 124.469Z" fill="#31A8FF"/>
<path d="M187.132 114.391C190.639 115.133 193.94 116.3 197.035 117.998C197.447 118.21 197.963 118.21 198.891 117.998C199.201 117.786 199.407 117.361 199.407 116.937V99.6433C199.407 99.2189 199.304 98.7945 199.201 98.3701C198.995 97.9457 198.582 97.5214 198.169 97.4153C195.384 96.2482 192.393 95.3995 189.298 94.9751C185.069 94.3385 180.737 94.0202 176.508 94.0202C169.184 94.0202 163.098 95.1873 158.25 97.7336C153.815 99.8555 149.998 103.251 147.419 107.494C145.15 111.42 143.912 115.77 143.912 120.332C143.809 124.045 144.634 127.759 146.285 131.154C148.245 134.761 150.927 137.838 154.124 140.172C158.663 143.355 163.511 145.901 168.772 147.811C173.826 149.826 177.23 151.418 178.88 152.797C180.531 154.176 181.356 155.555 181.356 157.041C181.356 158.951 180.221 160.754 178.571 161.497C176.714 162.452 173.929 162.982 170.009 162.982C165.883 162.982 161.757 162.452 157.838 161.391C153.299 160.33 149.07 158.632 145.047 156.192C144.738 155.98 144.428 155.874 144.119 156.086C143.809 156.298 143.706 156.723 143.706 157.041V175.501C143.603 176.35 144.119 177.093 144.841 177.517C148.141 179.109 151.752 180.276 155.362 180.912C160.004 181.867 164.646 182.291 169.39 182.291C176.817 182.291 183.006 181.124 188.061 178.896C192.702 176.987 196.725 173.698 199.613 169.454C202.295 165.316 203.739 160.33 203.636 155.343C203.739 151.524 202.914 147.811 201.264 144.415C199.304 140.808 196.519 137.838 193.115 135.61C188.164 132.427 182.8 129.774 177.23 127.865C174.754 126.804 172.279 125.637 169.906 124.363C168.565 123.621 167.327 122.666 166.399 121.499C165.78 120.65 165.368 119.695 165.368 118.74C165.368 117.786 165.677 116.725 166.193 115.876C166.915 114.815 168.049 114.072 169.39 113.754C171.35 113.223 173.516 112.905 175.579 113.011C179.499 113.011 183.316 113.542 187.132 114.391Z" fill="#31A8FF"/>
</g>
<rect x="0.5" y="0.5" width="249" height="249" rx="31.5" stroke="black" stroke-opacity="0.1"/>
<defs>
<clipPath id="clip0_3_67">
<rect width="250" height="250" rx="32" fill="white"/>
</clipPath>
</defs>
</svg>
