<svg preserveAspectRatio="none" width="100%" height="100%" overflow="visible" style="display: block;" viewBox="0 0 40 40" fill="none" xmlns="http://www.w3.org/2000/svg">
<g id="Group 4">
<circle id="Ellipse 2" cx="20" cy="20" r="20" fill="var(--fill-0, #5CFF85)"/>
<g id="Frame">
<path id="Vector" fill-rule="evenodd" clip-rule="evenodd" d="M20.97 11.97C21.1106 11.8295 21.3012 11.7507 21.5 11.7507C21.6988 11.7507 21.8894 11.8295 22.03 11.97L29.53 19.47C29.6705 19.6106 29.7493 19.8012 29.7493 20C29.7493 20.1988 29.6705 20.3894 29.53 20.53L22.03 28.03C21.9613 28.1037 21.8785 28.1628 21.7865 28.2038C21.6945 28.2448 21.5952 28.2668 21.4945 28.2686C21.3938 28.2704 21.2938 28.2518 21.2004 28.2141C21.107 28.1764 21.0222 28.1203 20.951 28.049C20.8797 27.9778 20.8236 27.893 20.7859 27.7996C20.7482 27.7062 20.7296 27.6062 20.7314 27.5055C20.7332 27.4048 20.7552 27.3055 20.7962 27.2135C20.8372 27.1215 20.8963 27.0387 20.97 26.97L27.19 20.75H11C10.8011 20.75 10.6103 20.671 10.4697 20.5303C10.329 20.3897 10.25 20.1989 10.25 20C10.25 19.8011 10.329 19.6103 10.4697 19.4697C10.6103 19.329 10.8011 19.25 11 19.25H27.19L20.97 13.03C20.8295 12.8894 20.7507 12.6988 20.7507 12.5C20.7507 12.3012 20.8295 12.1106 20.97 11.97Z" fill="var(--fill-0, black)"/>
</g>
</g>
</svg>
